<?xml version="1.0" encoding="UTF-8" standalone="no"?>
<svg
   xmlns:dc="http://purl.org/dc/elements/1.1/"
   xmlns:cc="http://creativecommons.org/ns#"
   xmlns:rdf="http://www.w3.org/1999/02/22-rdf-syntax-ns#"
   xmlns:svg="http://www.w3.org/2000/svg"
   xmlns="http://www.w3.org/2000/svg"
   xmlns:sodipodi="http://sodipodi.sourceforge.net/DTD/sodipodi-0.dtd"
   xmlns:inkscape="http://www.inkscape.org/namespaces/inkscape"
   width="13"
   height="12"
   viewBox="0 0 13 12"
   fill="none"
   version="1.1"
   id="svg42"
   sodipodi:docname="home.svg"
   inkscape:version="1.0.2 (e86c870879, 2021-01-15, custom)">
  <metadata
     id="metadata48">
    <rdf:RDF>
      <cc:Work
         rdf:about="">
        <dc:format>image/svg+xml</dc:format>
        <dc:type
           rdf:resource="http://purl.org/dc/dcmitype/StillImage" />
        <dc:title></dc:title>
      </cc:Work>
    </rdf:RDF>
  </metadata>
  <defs
     id="defs46" />
  <sodipodi:namedview
     pagecolor="#ffffff"
     bordercolor="#666666"
     borderopacity="1"
     objecttolerance="10"
     gridtolerance="10"
     guidetolerance="10"
     inkscape:pageopacity="0"
     inkscape:pageshadow="2"
     inkscape:window-width="1366"
     inkscape:window-height="705"
     id="namedview44"
     showgrid="false"
     inkscape:zoom="44.833333"
     inkscape:cx="6.5"
     inkscape:cy="6.4019747"
     inkscape:window-x="-8"
     inkscape:window-y="-8"
     inkscape:window-maximized="1"
     inkscape:current-layer="svg42" />
  <path
     d="M 12.636466,5.8521551 C 12.863593,5.6074765 12.841658,5.2324484 12.587439,5.014731 L 6.9881138,0.21533989 C 6.733959,-0.00237821 6.3264866,0.00218259 6.0776891,0.22562149 L 0.45928591,5.2706117 C 0.21048131,5.4940506 0.19826986,5.8685969 0.43224913,6.1068413 l 0.1408606,0.1436995 C 0.80680293,6.4887853 1.1845428,6.517192 1.416278,6.3137983 L 1.8361631,5.9454554 v 5.3926066 c 0,0.330842 0.2736834,0.598748 0.6111884,0.598748 h 2.1900733 c 0.3375051,0 0.6111884,-0.267906 0.6111884,-0.598748 V 7.5654074 h 2.7934483 v 3.7726546 c -0.00485,0.330641 0.2366377,0.598446 0.5741528,0.598446 h 2.3209007 c 0.337506,0 0.611229,-0.267805 0.611229,-0.598647 V 6.0213805 c 0,0 0.115939,0.099544 0.259068,0.2227262 0.142825,0.1229415 0.442728,0.024362 0.669854,-0.2205581 z"
     fill="#d31342"
     id="path40"
     style="stroke-width:1.00728" />
</svg>
