<?xml version="1.0" standalone="no"?>
<!DOCTYPE svg PUBLIC "-//W3C//DTD SVG 20010904//EN"
 "http://www.w3.org/TR/2001/REC-SVG-20010904/DTD/svg10.dtd">
<svg version="1.0" xmlns="http://www.w3.org/2000/svg"
 width="500.000000pt" height="500.000000pt" viewBox="0 0 500.000000 500.000000"
 preserveAspectRatio="xMidYMid meet">
<metadata>
Created by potrace 1.14, written by Peter Selinger 2001-2017
</metadata>
<g transform="translate(0.000000,500.000000) scale(0.100000,-0.100000)"
fill="#000000" stroke="none">
<path d="M2427 4994 c-1 -1 -27 -5 -57 -8 -131 -16 -254 -55 -378 -121 -333
-177 -567 -518 -628 -914 -10 -59 -10 -320 -1 -386 16 -123 73 -298 134 -413
18 -35 33 -65 33 -67 0 -1 -15 -6 -33 -9 -45 -8 -111 -67 -130 -115 -38 -95
46 -190 201 -224 l57 -13 31 -95 c18 -52 60 -182 94 -289 34 -107 79 -247 99
-310 21 -63 57 -176 80 -250 24 -74 53 -166 66 -205 13 -38 54 -164 90 -280
36 -115 70 -221 75 -235 5 -14 39 -119 75 -235 36 -116 77 -241 90 -280 13
-38 42 -131 66 -205 82 -261 107 -335 115 -335 4 0 13 18 20 40 7 22 43 134
79 250 36 116 72 228 80 250 7 22 41 128 75 235 33 107 69 220 79 250 11 30
42 129 71 220 28 91 58 183 65 205 8 22 42 128 75 235 34 107 65 206 70 220 8
23 113 353 164 515 13 39 40 125 62 192 l39 122 59 10 c212 38 284 224 137
353 -23 20 -48 39 -54 41 -9 3 -9 7 0 18 27 33 97 236 119 343 21 106 25 313
8 431 -42 286 -158 520 -358 721 -176 176 -361 276 -593 320 -70 13 -266 26
-276 18z"/>
</g>
</svg>
